<?xml version="1.0" standalone="no"?>
<!DOCTYPE svg PUBLIC "-//W3C//DTD SVG 20010904//EN"
 "http://www.w3.org/TR/2001/REC-SVG-20010904/DTD/svg10.dtd">
<svg version="1.0" xmlns="http://www.w3.org/2000/svg"
 width="900.000000pt" height="900.000000pt" viewBox="0 0 900.000000 900.000000"
 preserveAspectRatio="xMidYMid meet">
<metadata>
Created by potrace 1.11, written by Peter Selinger 2001-2013
</metadata>
<g transform="translate(0.000000,900.000000) scale(0.100000,-0.100000)"
fill="#000000" stroke="none">
<path d="M6415 7259 c-44 -12 -875 -680 -973 -782 -55 -58 -80 -139 -76 -249
1 -43 5 -86 9 -97 3 -11 1 -37 -4 -58 -6 -21 -12 -47 -14 -58 -4 -28 -87 -106
-106 -101 -9 2 -26 7 -39 11 -38 11 -102 -5 -135 -34 -35 -30 -74 -44 -82 -30
-3 5 -23 13 -45 19 -30 8 -48 7 -85 -5 -27 -10 -59 -14 -75 -10 -40 9 -107
-12 -124 -38 -23 -35 -49 -119 -48 -154 1 -29 -2 -33 -38 -43 -24 -6 -50 -24
-67 -44 -18 -23 -40 -37 -64 -41 -52 -10 -97 -40 -105 -70 -4 -18 -16 -27 -45
-35 -21 -6 -39 -14 -39 -18 0 -4 315 -322 700 -707 l700 -700 0 57 0 56 443
-5 c477 -6 513 -3 543 42 9 14 18 54 21 93 2 37 6 81 8 97 l5 30 627 0 c701 1
1209 11 1266 26 21 5 44 21 53 34 22 34 20 92 -4 124 -28 38 -27 145 1 183 18
25 26 105 13 127 -3 4 -1 23 4 40 10 37 -19 142 -49 176 -10 11 -21 31 -24 45
-4 14 -22 48 -40 76 -19 29 -38 69 -41 90 -4 22 -15 50 -24 64 -18 27 -36 70
-58 142 -20 61 -68 104 -127 113 -27 4 -64 21 -93 41 -26 19 -54 34 -63 34 -8
0 -24 11 -36 25 -14 19 -41 31 -97 46 -48 12 -86 28 -101 43 -25 25 -140 53
-180 42 -20 -5 -23 -2 -24 27 -1 18 -11 52 -22 77 -26 56 -26 74 -2 108 35 49
31 100 -12 149 -18 21 -47 61 -66 88 -74 108 -138 154 -197 139 -20 -5 -24 0
-33 33 -6 21 -17 47 -25 58 -12 17 -11 23 11 52 14 17 31 53 39 78 19 64 4
102 -77 199 -72 86 -101 100 -192 91 -43 -4 -58 -1 -68 11 -8 9 -30 27 -50 40
-20 12 -64 50 -97 83 -34 34 -69 61 -78 61 -9 0 -32 10 -52 22 -26 16 -53 22
-104 24 -55 1 -76 7 -106 27 -47 32 -99 46 -137 36z"/>
<path d="M2055 6950 l-49 -49 20 -22 c10 -13 315 -319 677 -680 361 -362 657
-661 657 -665 0 -3 -113 -118 -251 -256 l-251 -250 48 -49 47 -48 26 22 c26
22 435 420 541 527 151 152 490 499 518 531 l31 36 -48 47 -48 47 -250 -249
-250 -250 -679 679 c-373 373 -681 679 -684 679 -3 0 -28 -22 -55 -50z"/>
<path d="M1596 5535 c-21 -7 -51 -25 -66 -40 -15 -14 -70 -58 -123 -98 -52
-40 -139 -108 -193 -152 -225 -185 -373 -306 -606 -495 -202 -163 -249 -206
-256 -232 -13 -47 2 -88 45 -126 34 -30 571 -457 851 -676 l112 -88 0 -182 0
-183 -70 -12 c-55 -10 -80 -21 -119 -52 -65 -52 -76 -82 -75 -206 2 -118 9
-134 78 -180 l46 -31 -40 -26 c-54 -36 -64 -74 -40 -166 10 -40 25 -79 33 -88
8 -10 22 -34 30 -54 17 -41 42 -60 108 -82 31 -11 69 -38 115 -82 39 -37 81
-68 97 -71 16 -3 41 -22 59 -44 32 -39 75 -59 130 -59 19 0 38 -11 59 -34 17
-19 48 -41 68 -50 21 -8 45 -26 54 -40 21 -31 81 -49 123 -37 17 5 37 5 45 0
8 -4 26 -9 40 -11 32 -5 81 -53 107 -105 40 -78 143 -111 209 -68 15 10 120
91 233 180 113 89 221 172 241 186 19 13 114 85 210 159 255 198 316 245 396
306 57 43 74 62 82 92 7 22 11 158 11 329 l0 292 289 3 c282 3 290 4 320 26
17 12 38 22 48 22 10 1 34 6 53 13 27 10 43 10 70 1 20 -7 46 -8 62 -3 23 6
182 114 277 188 l25 19 -666 666 -665 666 -32 -10 c-18 -5 -38 -13 -45 -19
-33 -28 -101 -40 -168 -31 -55 8 -76 7 -110 -6 -24 -9 -67 -20 -97 -25 -29 -5
-63 -15 -75 -22 -11 -6 -40 -12 -63 -13 -24 -1 -53 -9 -67 -17 -13 -9 -45 -19
-71 -22 -26 -3 -66 -16 -89 -30 -24 -14 -58 -25 -77 -25 -68 0 -217 60 -287
114 -107 83 -125 96 -141 96 -9 0 -29 12 -44 26 -24 22 -27 31 -21 57 14 56 5
91 -35 148 -22 31 -47 79 -57 108 -9 28 -25 58 -36 65 -10 7 -32 35 -49 60
-16 26 -42 54 -58 63 -15 9 -32 30 -37 46 -17 57 -83 85 -148 62z"/>
<path d="M3571 5436 l-53 -53 199 -200 c109 -109 295 -297 413 -416 l214 -216
-34 -42 c-25 -31 -31 -46 -23 -57 16 -27 30 -24 70 12 l39 35 160 -160 159
-159 -123 -123 -122 -122 53 -53 54 -53 292 292 292 292 -53 54 -53 53 -115
-115 -115 -115 -160 160 -160 160 113 113 c61 62 112 117 112 123 0 6 -8 18
-18 27 -18 16 -25 11 -136 -99 l-118 -116 -265 264 c-146 144 -334 331 -418
415 l-152 151 -52 -52z"/>
<path d="M5386 3780 c-114 -115 -206 -214 -204 -221 2 -7 12 -17 21 -23 14 -9
50 22 227 199 l211 211 -24 22 -23 22 -208 -210z"/>
<path d="M6232 2757 l-172 -173 255 -254 c236 -236 258 -255 293 -258 35 -3
43 2 92 53 30 30 59 55 65 55 5 0 165 -155 354 -344 304 -304 346 -343 363
-333 10 7 18 14 18 17 0 3 -155 161 -345 350 -190 190 -345 348 -345 353 0 5
25 33 55 63 30 30 55 58 56 62 8 66 16 55 -294 366 -120 119 -218 216 -220
216 -1 0 -80 -78 -175 -173z"/>
</g>
</svg>
